<?xml version="1.0" standalone="no"?>
<!DOCTYPE svg PUBLIC "-//W3C//DTD SVG 20010904//EN"
 "http://www.w3.org/TR/2001/REC-SVG-20010904/DTD/svg10.dtd">
<svg version="1.0" xmlns="http://www.w3.org/2000/svg"
 width="672.000000pt" height="672.000000pt" viewBox="0 0 672.000000 672.000000"
 preserveAspectRatio="xMidYMid meet">
<metadata>
Created by potrace 1.14, written by Peter Selinger 2001-2017
</metadata>
<g transform="translate(0.000000,672.000000) scale(0.100000,-0.100000)"
fill="#000000" stroke="none">
<path d="M2304 6711 c-38 -9 -121 -49 -148 -70 -25 -20 -146 -142 -481 -486
-148 -152 -324 -332 -390 -400 -129 -132 -593 -607 -800 -820 -70 -71 -189
-194 -266 -272 l-140 -143 3 -1058 3 -1058 37 -75 c40 -80 -13 -26 961 -982
495 -486 470 -463 526 -484 70 -26 148 -22 215 12 31 15 97 69 167 137 64 62
203 196 309 298 363 349 364 350 364 476 0 138 89 39 -1191 1328 -167 167
-303 308 -303 313 0 5 53 64 118 130 149 155 605 622 787 808 77 79 271 277
430 440 160 163 364 373 455 466 91 93 275 282 410 420 135 138 305 313 378
388 74 75 186 190 251 256 65 66 125 132 135 146 41 63 19 164 -45 210 l-34
24 -860 2 c-473 0 -874 -2 -891 -6z"/>
<path d="M4929 6009 c-68 -10 -97 -29 -205 -131 -53 -51 -116 -111 -139 -133
-562 -534 -559 -530 -578 -587 -21 -64 -17 -161 10 -213 12 -22 110 -130 218
-240 176 -179 650 -661 1117 -1136 l168 -171 -28 -28 c-15 -15 -103 -107 -197
-205 -97 -101 -186 -185 -208 -197 -58 -29 -125 -33 -193 -12 -55 17 -73 33
-548 512 -270 271 -582 585 -693 697 -135 136 -217 210 -247 225 -61 29 -136
30 -202 1 -52 -23 -54 -24 -671 -659 -90 -92 -171 -183 -180 -202 -25 -50 -24
-163 1 -214 11 -22 73 -92 137 -155 64 -64 325 -321 579 -571 254 -250 502
-495 551 -543 110 -108 133 -149 133 -237 1 -51 -4 -76 -24 -113 -17 -32 -197
-221 -560 -588 -294 -297 -541 -547 -548 -555 -24 -25 -44 -89 -46 -144 -5
-136 120 -259 254 -252 50 2 66 2 135 -1 39 -1 80 1 93 5 12 4 22 4 22 0 0 -9
253 -8 268 2 7 4 17 4 23 0 16 -10 439 -11 439 -1 0 5 4 6 9 3 5 -3 31 -6 57
-6 27 0 58 0 69 0 174 -5 315 -3 315 3 0 4 7 4 16 -1 9 -5 26 -7 38 -5 67 14
106 27 106 36 0 6 3 8 6 4 4 -3 12 -1 20 6 32 29 2062 2059 2081 2081 25 29
42 59 50 89 4 12 7 500 8 1084 l2 1063 -291 289 c-486 484 -1134 1125 -1155
1143 -18 15 -59 41 -71 44 -3 0 -12 3 -20 7 -27 10 -74 13 -121 6z"/>
</g>
</svg>
